<mxfile host="app.diagrams.net" modified="2022-06-16T12:05:36.003Z" agent="5.0 (Macintosh; Intel Mac OS X 10_15_7) AppleWebKit/605.1.15 (KHTML, like Gecko) Version/15.5 Safari/605.1.15" etag="Hg-HIAG7agXqcGzO1wUO" version="20.0.1" type="github">
  <diagram id="Cm-TL30hTygomqmKNTtr" name="Page-1">
    <mxGraphModel dx="1098" dy="738" grid="1" gridSize="10" guides="1" tooltips="1" connect="1" arrows="1" fold="1" page="1" pageScale="1" pageWidth="827" pageHeight="1169" math="0" shadow="0">
      <root>
        <mxCell id="0" />
        <mxCell id="1" parent="0" />
      </root>
    </mxGraphModel>
  </diagram>
</mxfile>
